<?xml version="1.0" encoding="UTF-8"?>
<svg width="433px" height="433px" viewBox="0 0 433 433" version="1.1" xmlns="http://www.w3.org/2000/svg" xmlns:xlink="http://www.w3.org/1999/xlink">
    <title>Group 7</title>
    <defs>
        <circle id="path-1" cx="22.5" cy="22.5" r="22.5"></circle>
    </defs>
    <g id="Page-1" stroke="none" stroke-width="1" fill="none" fill-rule="evenodd">
        <g id="Group-3" transform="translate(10.000000, 10.000000)">
            <path d="M85.5927042,130 L344.407296,130 C351.034713,130 356.407296,135.372583 356.407296,142 C356.407296,143.037261 356.272809,144.070145 356.007199,145.072822 L322.364815,272.072822 C320.970786,277.335282 316.208881,281 310.764912,281 L119.235088,281 C113.791119,281 109.029214,277.335282 107.635185,272.072822 L73.9928006,145.072822 C72.2957278,138.666372 76.1134322,132.097169 82.519882,130.400096 C83.5225594,130.134486 84.5554431,130 85.5927042,130 Z" id="Rectangle" fill="#C87839"></path>
            <circle id="Oval" stroke="#FF7A00" stroke-width="10" fill="#00C89D" cx="206.5" cy="206.5" r="211.5"></circle>
            <circle id="Oval" stroke="#FFFFFF" stroke-width="4" fill="#FF7A00" opacity="0" cx="379.5" cy="202.5" r="20.5"></circle>
            <circle id="Oval" fill="#FF7A00" opacity="0" cx="36.5" cy="202.5" r="22.5"></circle>
            <g id="Group-6" opacity="0" transform="translate(14.000000, 180.000000)">
                <mask id="mask-2" fill="white">
                    <use xlink:href="#path-1"></use>
                </mask>
                <circle stroke="#FFFFFF" stroke-width="4" cx="22.5" cy="22.5" r="20.5"></circle>
                <circle id="Oval" stroke="#FFFFFF" stroke-width="2" mask="url(#mask-2)" cx="44.5" cy="1.5" r="22.5"></circle>
                <circle id="Oval" stroke="#FFFFFF" stroke-width="2" mask="url(#mask-2)" cx="0.5" cy="43.5" r="22.5"></circle>
            </g>
            <g id="Group-9" opacity="0" transform="translate(359.929692, 183.429898)" stroke="#FFFFFF" stroke-width="2">
                <g id="Group-2" transform="translate(17.197449, 30.715559) rotate(-20.000000) translate(-17.197449, -30.715559) translate(2.692041, 20.286864)">
                    <path d="M1.24014043e-13,0.205566243 C5.80897992,1.11992069 10.9634699,1.57709791 15.4634699,1.57709791 C19.9634699,1.57709791 23.879431,1.05139861 27.2113532,-5.34558789e-14 C27.6266507,0.766284281 28.0107044,2.14760912 28.3635142,4.14397453 C28.7163241,6.14033994 28.9301287,8.1419813 29.0049282,10.1488986 C23.2765052,11.1837984 18.77593,11.7012483 15.5032027,11.7012483 C12.2304754,11.7012483 7.73105061,11.1837984 2.00492824,10.1488986 L1.24014043e-13,0.205566243 Z" id="Rectangle"></path>
                    <path d="M2.2611382,10.1211128 C6.53160266,10.9444866 10.9168349,11.3561735 15.4168349,11.3561735 C19.9168349,11.3561735 24.4168349,10.8582311 28.9168349,9.86234631 C29.084806,10.7667831 29.0276168,12.1788923 28.7452672,14.0986736 C28.4629176,16.018455 27.6792653,18.0543918 26.3943101,20.2064839 C21.6860997,20.6171416 18.3158659,20.8341106 16.283609,20.8573908 C15.9917337,20.860677 15.4022472,20.0738396 15.1162731,20.0738396 C11.8435458,20.0738396 8.62601965,18.193304 5.46369456,14.4322328 L2.2611382,10.1211128 Z" id="Rectangle"></path>
                </g>
                <path d="M25.5703078,16.5701019 C25.2369745,15.2367685 25.0703078,12.7367685 25.0703078,9.07010186 C25.0703078,5.4034352 25.9036411,2.73676853 27.5703078,1.07010186" id="Line" stroke-linecap="square"></path>
                <path d="M26.5575249,28.1400207 C26.5526538,23.5329211 27.4935939,19.5300126 29.3803452,16.1312951 C31.2670966,12.7325776 33.6666783,10.1880512 36.5790904,8.49771582" id="Line" stroke-linecap="square" transform="translate(31.568308, 18.318868) rotate(-234.000000) translate(-31.568308, -18.318868) "></path>
                <path d="M14.5121683,0.0701018623 C12.8842613,2.02359023 12.0703078,5.11661349 12.0703078,9.34917163 C12.0703078,13.5817298 12.8842613,17.4887065 14.5121683,21.0701019" id="Line-2" stroke-linecap="square" transform="translate(13.291238, 10.570102) rotate(6.000000) translate(-13.291238, -10.570102) "></path>
            </g>
            <circle id="Oval" stroke="#FF7A00" stroke-width="10" fill="#FFFFFF" cx="208" cy="203" r="135"></circle>
            <circle id="Oval" stroke="#FF7A00" stroke-width="10" fill="#FFFFFF" cx="208" cy="203" r="135"></circle>
            <g id="Group" transform="translate(116.333653, 160.000000)" fill="#00C89D">
                <path d="M4.66634662,0 L19.3072051,0 C20.1275504,1.18157264e-15 20.8647103,0.500952333 21.1667293,1.26367832 L43.1813393,56.8598966 C43.5879985,57.8868835 44.7501983,58.3897584 45.7771852,57.9830992 C46.2576491,57.7928484 46.6458256,57.4240124 46.8603625,56.9538902 L68.3468476,9.86980202 C68.8054181,8.86492048 69.9917804,8.42204785 70.9966619,8.88061832 C71.7091858,9.20577346 72.1663466,9.91690843 72.1663466,10.7001173 L72.1663466,25.0716185 C72.1663466,25.3540037 72.1065479,25.633188 71.9908857,25.8907994 L50.7481881,73.2040804 C50.3997657,73.980112 50.5803495,74.8916243 51.1983274,75.4761981 L57.6972879,81.6238634 L57.6972879,81.6238634 L65.0160991,88.5470632 C65.818534,89.3061232 65.8536962,90.5719649 65.0946362,91.3743997 C64.7168782,91.7737439 64.1914056,92 63.6416994,92 L38.5809503,92 C37.7331934,92 36.9775367,91.4655226 36.6951589,90.6661763 L8.37287134,10.4923161 L8.37287134,10.4923161 C4.35657259,6.24321391 1.63109905,3.32044284 0.196450734,1.7240029 C-0.350651908,1.11520108 0.333012271,0 1.16634662,0 C2.33301329,0 3.49967995,0 4.66634662,0 L4.66634662,0 Z" id="Rectangle"></path>
                <path d="M62.6663466,0 L77.3072051,0 C78.1275504,1.18157264e-15 78.8647103,0.500952333 79.1667293,1.26367832 L101.181339,56.8598966 C101.587998,57.8868835 102.750198,58.3897584 103.777185,57.9830992 C104.257649,57.7928484 104.645826,57.4240124 104.860362,56.9538902 L126.346848,9.86980202 C126.805418,8.86492048 127.99178,8.42204785 128.996662,8.88061832 C129.709186,9.20577346 130.166347,9.91690843 130.166347,10.7001173 L130.166347,25.0716185 C130.166347,25.3540037 130.106548,25.633188 129.990886,25.8907994 L108.748188,73.2040804 C108.399766,73.980112 108.580349,74.8916243 109.198327,75.4761981 L115.697288,81.6238634 L115.697288,81.6238634 L123.016099,88.5470632 C123.818534,89.3061232 123.853696,90.5719649 123.094636,91.3743997 C122.716878,91.7737439 122.191406,92 121.641699,92 L96.5809503,92 C95.7331934,92 94.9775367,91.4655226 94.6951589,90.6661763 L66.3728713,10.4923161 L66.3728713,10.4923161 C62.3565726,6.24321391 59.6310991,3.32044284 58.1964507,1.7240029 C57.6493481,1.11520108 58.3330123,0 59.1663466,0 C60.3330133,0 61.49968,0 62.6663466,0 L62.6663466,0 Z" id="Rectangle"></path>
                <path d="M119.666347,0 L134.307205,0 C135.12755,2.06975106e-15 135.86471,0.500952333 136.166729,1.26367832 L159.910486,61.2267238 L165.003183,74.0879423 C165.110655,74.3593555 165.276239,74.6039522 165.488307,74.8045575 L172.697288,81.6238634 L172.697288,81.6238634 L180.016099,88.5470632 C180.818534,89.3061232 180.853696,90.5719649 180.094636,91.3743997 C179.716878,91.7737439 179.191406,92 178.641699,92 L153.58095,92 C152.733193,92 151.977537,91.4655226 151.695159,90.6661763 L123.372871,10.4923161 L123.372871,10.4923161 C119.356573,6.24321391 116.631099,3.32044284 115.196451,1.7240029 C114.649348,1.11520108 115.333012,0 116.166347,0 C117.333013,0 118.49968,0 119.666347,0 L119.666347,0 Z" id="Rectangle"></path>
            </g>
        </g>
    </g>
</svg>